<?xml version="1.0" standalone="no"?>
<!DOCTYPE svg PUBLIC "-//W3C//DTD SVG 20010904//EN"
 "http://www.w3.org/TR/2001/REC-SVG-20010904/DTD/svg10.dtd">
<svg version="1.0" xmlns="http://www.w3.org/2000/svg"
 width="161.000000pt" height="161.000000pt" viewBox="0 0 161.000000 161.000000"
 preserveAspectRatio="xMidYMid meet">
<metadata>
Created by potrace 1.14, written by Peter Selinger 2001-2017
</metadata>
<g transform="translate(0.000000,161.000000) scale(0.100000,-0.100000)"
fill="#000000" stroke="none">
<path d="M670 1426 c-133 -33 -217 -80 -311 -175 -149 -149 -215 -354 -178
-557 5 -32 32 -104 59 -159 41 -86 59 -111 127 -176 43 -41 101 -86 128 -99
28 -13 52 -27 55 -32 3 -4 15 -9 25 -11 11 -1 25 -5 30 -9 28 -17 130 -29 215
-26 l95 4 -102 2 -102 2 13 38 c8 20 19 36 25 35 6 -2 8 4 4 13 -5 14 -3 15
17 4 14 -8 40 -10 71 -6 47 6 47 6 59 -28 18 -57 30 -61 104 -36 173 57 337
220 397 397 21 58 24 87 24 203 0 115 -3 145 -23 202 -63 182 -233 348 -412
403 -74 23 -249 29 -320 11z m256 -25 c51 -23 82 -62 90 -112 6 -33 9 -37 25
-29 10 6 38 10 62 10 85 0 129 -66 103 -154 l-15 -48 24 22 c29 27 53 21 94
-26 59 -66 30 -124 -62 -124 l-52 0 3 -45 c4 -39 0 -49 -26 -75 -38 -38 -75
-39 -108 -3 -35 38 -40 67 -15 99 14 18 21 40 20 68 l-1 41 -7 -36 c-4 -20
-23 -59 -42 -85 -19 -27 -40 -62 -48 -79 -8 -17 -16 -25 -18 -17 -3 7 18 46
45 87 28 41 46 75 42 75 -8 0 -76 -97 -86 -124 -8 -20 -28 -20 -45 0 -20 25
-83 53 -131 59 -43 5 -43 5 8 -8 156 -41 229 -173 177 -319 -15 -43 -20 -48
-48 -48 -36 0 -53 12 -85 60 -13 19 -29 38 -35 42 -18 14 -80 8 -104 -9 -19
-13 -28 -14 -42 -5 -35 22 -77 14 -101 -18 -20 -27 -23 -29 -30 -13 -16 43 -8
129 18 181 26 53 98 117 118 105 6 -4 20 -7 31 -8 14 0 28 -15 44 -47 36 -71
91 -60 61 11 -16 39 -42 62 -81 70 l-31 6 66 88 c36 48 62 87 57 87 -5 0 -14
-7 -21 -15 -17 -20 -33 -19 -55 5 -26 29 -10 68 38 93 l38 20 -56 23 c-85 34
-109 76 -80 138 34 70 167 100 261 57z m-131 -971 c44 -12 45 -13 45 -55 0
-35 -4 -44 -22 -48 -12 -3 -25 -4 -29 -1 -10 6 1 77 13 85 5 3 -17 9 -49 12
-32 3 -71 10 -86 16 -28 11 -28 11 -10 34 l17 24 38 -27 c20 -15 58 -33 83
-40z"/>
<path d="M685 730 c-33 -36 4 -100 40 -70 21 18 19 67 -4 79 -14 8 -23 6 -36
-9z m33 -32 c-2 -13 -7 -23 -13 -23 -5 0 -11 10 -13 23 -2 15 2 22 13 22 11 0
15 -7 13 -22z"/>
<path d="M594 716 c-9 -23 4 -66 20 -66 21 0 38 26 34 52 -4 28 -45 38 -54 14z
m36 -26 c0 -11 -4 -20 -10 -20 -5 0 -10 9 -10 20 0 11 5 20 10 20 6 0 10 -9
10 -20z"/>
</g>
</svg>
